<svg data-token-name="prototype" width="24px" height="24px" viewBox="0 0 24 24" version="1.1" 
  xmlns="http://www.w3.org/2000/svg">
  <path d="M16,15 C15.4477153,15 15,15.4477153 15,16 L15,20 C15,20.5522847 15.4477153,21 16,21 L20,21 C20.5522847,21 21,20.5522847 21,20 L21,16 C21,15.4477153 20.5522847,15 20,15 L16,15 Z M16,13 L20,13 C21.6568542,13 23,14.3431458 23,16 L23,20 C23,21.6568542 21.6568542,23 20,23 L16,23 C14.3431458,23 13,21.6568542 13,20 L13,16 C13,14.3431458 14.3431458,13 16,13 Z" fill="currentColor"></path>
  <path d="M4,3 C3.44771525,3 3,3.44771525 3,4 L3,8 C3,8.55228475 3.44771525,9 4,9 L8,9 C8.55228475,9 9,8.55228475 9,8 L9,4 C9,3.44771525 8.55228475,3 8,3 L4,3 Z M4,1 L8,1 C9.65685425,1 11,2.34314575 11,4 L11,8 C11,9.65685425 9.65685425,11 8,11 L4,11 C2.34314575,11 1,9.65685425 1,8 L1,4 C1,2.34314575 2.34314575,1 4,1 Z" fill="currentColor"></path>
  <path d="M6.62622655,17.3737734 C6.23570226,16.9832492 6.23570226,16.3500842 6.62622655,15.9595599 C7.01675084,15.5690356 7.64991582,15.5690356 8.04044011,15.9595599 L10.7071068,18.6262266 C11.0976311,19.0167508 11.0976311,19.6499158 10.7071068,20.0404401 L8.04044011,22.7071068 C7.64991582,23.0976311 7.01675084,23.0976311 6.62622655,22.7071068 C6.23570226,22.3165825 6.23570226,21.6834175 6.62622655,21.2928932 L8.58578644,19.3333333 L6.62622655,17.3737734 Z" fill="currentColor"></path>
  <path d="M1,14 C1,13.4477153 1.44771525,13 2,13 C2.55228475,13 3,13.4477153 3,14 L3,17.3939394 C3,17.905749 3.44094632,18.3333333 4,18.3333333 L10,18.3333333 C10.5522847,18.3333333 11,18.7810486 11,19.3333333 C11,19.8856181 10.5522847,20.3333333 10,20.3333333 L4,20.3333333 C2.34991468,20.3333333 1,19.0243252 1,17.3939394 L1,14 Z" fill="currentColor"></path>
  <path d="M17.3737734,6.62622655 C17.7642977,7.01675084 17.7642977,7.64991582 17.3737734,8.04044011 C16.9832492,8.43096441 16.3500842,8.43096441 15.9595599,8.04044011 L13.2928932,5.37377345 C12.9023689,4.98324916 12.9023689,4.35008418 13.2928932,3.95955989 L15.9595599,1.29289322 C16.3500842,0.902368927 16.9832492,0.902368927 17.3737734,1.29289322 C17.7642977,1.68341751 17.7642977,2.31658249 17.3737734,2.70710678 L15.4142136,4.66666667 L17.3737734,6.62622655 Z" fill="currentColor"></path>
  <path d="M23,10 C23,10.5522847 22.5522847,11 22,11 C21.4477153,11 21,10.5522847 21,10 L21,6.60606061 C21,6.09425098 20.5590537,5.66666667 20,5.66666667 L14,5.66666667 C13.4477153,5.66666667 13,5.21895142 13,4.66666667 C13,4.11438192 13.4477153,3.66666667 14,3.66666667 L20,3.66666667 C21.6500853,3.66666667 23,4.97567484 23,6.60606061 L23,10 Z" fill="currentColor"></path>
</svg>